<?xml version="1.0" encoding="UTF-8"?>
<svg id="Layer_1" xmlns="http://www.w3.org/2000/svg" version="1.1" viewBox="0 0 774.11 201.95">
  <!-- Variante clara del logo (public/brand/blauw-labs-logo.svg) para fondos oscuros -->
  <defs>
    <style>
      .st0 {
        fill: #f5f5f4;
      }

      .st1 {
        fill: #003ce5;
      }

      .st2 {
        fill: #fff;
      }
    </style>
  </defs>
  <g>
    <path class="st0" d="M169.04,138.53V58.71h29.23c4.87,0,9.13.79,12.79,2.38,3.65,1.59,6.49,3.91,8.52,6.97,2.03,3.06,3.04,6.77,3.04,11.13,0,2.36-.41,4.58-1.22,6.64-.81,2.07-1.96,3.87-3.43,5.42-1.48,1.55-3.21,2.73-5.2,3.54,3.99,1.48,7.23,3.95,9.74,7.42,2.51,3.47,3.76,7.75,3.76,12.84s-1.11,9.28-3.32,12.79c-2.21,3.51-5.31,6.16-9.3,7.97-3.99,1.81-8.67,2.71-14.06,2.71h-30.55ZM196.83,90.6c4.28,0,7.49-.94,9.63-2.82,2.14-1.88,3.21-4.45,3.21-7.69s-1.09-5.92-3.27-7.8c-2.18-1.88-5.41-2.82-9.69-2.82h-14.83v21.14h14.94ZM197.38,127.13c5.24,0,9.19-1.09,11.85-3.27,2.66-2.18,3.99-5.29,3.99-9.35s-1.33-7.2-3.99-9.41c-2.66-2.21-6.61-3.32-11.85-3.32h-15.5v25.35h15.5Z"/>
    <path class="st0" d="M229.6,138.53v-10.19h33.21v10.19h-33.21ZM232.37,68.01v-10.18h15.94v10.18h-15.94ZM240.23,138.53V57.83h12.07v80.7h-12.07Z"/>
    <path class="st0" d="M287.94,139.42c-3.84,0-7.25-.7-10.24-2.1-2.99-1.4-5.33-3.34-7.03-5.81-1.7-2.47-2.55-5.33-2.55-8.58s.77-6.22,2.33-8.69c1.55-2.47,3.8-4.46,6.75-5.98,2.95-1.51,6.49-2.56,10.63-3.15l12.29-1.66c1.7-.22,2.95-.74,3.76-1.55.81-.81,1.22-1.88,1.22-3.21,0-2.51-1.03-4.61-3.1-6.31-2.07-1.7-4.98-2.55-8.75-2.55-3.47,0-6.4.87-8.8,2.6-2.4,1.73-3.75,4.19-4.04,7.36h-11.85c.44-3.99,1.73-7.45,3.88-10.41,2.14-2.95,4.98-5.22,8.52-6.81,3.54-1.59,7.64-2.38,12.29-2.38s9.11.89,12.73,2.66c3.62,1.77,6.38,4.25,8.3,7.42,1.92,3.17,2.88,6.9,2.88,11.18v22.81c0,1.62.31,2.79.94,3.49.63.7,1.57,1.05,2.82,1.05.37,0,.72-.02,1.05-.06.33-.04.61-.09.83-.17v9.96c-.74.15-1.55.29-2.44.44-.89.15-1.96.22-3.21.22-3.1,0-5.59-.74-7.47-2.21-1.88-1.48-2.97-3.76-3.27-6.86-.89,1.92-2.25,3.58-4.1,4.98-1.85,1.4-3.99,2.47-6.42,3.21-2.44.74-5.09,1.11-7.97,1.11ZM289.82,130.01c4.87,0,8.69-1.55,11.46-4.65s4.15-7.12,4.15-12.07v-2.1l-15.61,2.55c-3.17.52-5.57,1.49-7.2,2.93-1.62,1.44-2.44,3.38-2.44,5.81,0,2.21.89,4.02,2.66,5.42,1.77,1.4,4.1,2.1,6.97,2.1Z"/>
    <path class="st0" d="M379.27,81.08v57.46h-12.07v-9.74c-1.99,3.25-4.63,5.83-7.92,7.75-3.28,1.92-6.99,2.88-11.13,2.88s-7.64-.85-10.74-2.55c-3.1-1.7-5.54-4.08-7.31-7.14-1.77-3.06-2.66-6.66-2.66-10.79v-37.86h12.07v35.2c0,3.62,1.07,6.57,3.21,8.86,2.14,2.29,5.05,3.43,8.75,3.43,3.25,0,6.03-.89,8.36-2.66,2.32-1.77,4.13-4.33,5.42-7.69,1.29-3.36,1.94-7.32,1.94-11.9v-25.24h12.07Z"/>
    <path class="st0" d="M400.53,138.53l-14.39-57.46h11.4l6.53,27.57c.59,2.73,1.09,5.2,1.49,7.42.41,2.21.87,4.61,1.38,7.2.44-2.51.92-4.87,1.44-7.08.52-2.21,1.11-4.69,1.77-7.42l6.53-27.68h11.29l6.42,27.79c.74,2.73,1.33,5.19,1.77,7.36.44,2.18.92,4.56,1.44,7.14.37-2.66.79-5.11,1.27-7.36.48-2.25,1.01-4.71,1.61-7.36l6.64-27.57h11.29l-14.61,57.46h-12.51l-5.98-25.35c-.66-2.73-1.22-5.18-1.66-7.36-.44-2.18-.92-4.52-1.44-7.03-.37,2.51-.77,4.83-1.22,6.97-.44,2.14-1,4.58-1.66,7.31l-6.2,25.46h-12.62Z"/>
    <path class="st0" d="M499.94,138.53V58.71h12.84v68.3h37.97v11.51h-50.81Z"/>
    <path class="st0" d="M576.77,139.42c-3.84,0-7.25-.7-10.24-2.1-2.99-1.4-5.33-3.34-7.03-5.81-1.7-2.47-2.55-5.33-2.55-8.58s.78-6.22,2.33-8.69c1.55-2.47,3.8-4.46,6.75-5.98,2.95-1.51,6.49-2.56,10.63-3.15l12.29-1.66c1.7-.22,2.95-.74,3.76-1.55.81-.81,1.22-1.88,1.22-3.21,0-2.51-1.03-4.61-3.1-6.31-2.07-1.7-4.98-2.55-8.75-2.55-3.47,0-6.4.87-8.8,2.6-2.4,1.73-3.75,4.19-4.04,7.36h-11.84c.44-3.99,1.73-7.45,3.87-10.41,2.14-2.95,4.98-5.22,8.52-6.81,3.54-1.59,7.64-2.38,12.29-2.38s9.11.89,12.73,2.66c3.62,1.77,6.38,4.25,8.3,7.42,1.92,3.17,2.88,6.9,2.88,11.18v22.81c0,1.62.31,2.79.94,3.49.63.7,1.57,1.05,2.82,1.05.37,0,.72-.02,1.05-.06.33-.04.61-.09.83-.17v9.96c-.74.15-1.55.29-2.44.44-.89.15-1.96.22-3.21.22-3.1,0-5.59-.74-7.47-2.21-1.88-1.48-2.97-3.76-3.27-6.86-.89,1.92-2.25,3.58-4.1,4.98-1.85,1.4-3.99,2.47-6.42,3.21-2.44.74-5.09,1.11-7.97,1.11ZM578.65,130.01c4.87,0,8.69-1.55,11.46-4.65s4.15-7.12,4.15-12.07v-2.1l-15.61,2.55c-3.17.52-5.57,1.49-7.2,2.93-1.62,1.44-2.44,3.38-2.44,5.81,0,2.21.88,4.02,2.66,5.42,1.77,1.4,4.1,2.1,6.97,2.1Z"/>
    <path class="st0" d="M648.95,139.42c-2.58,0-5-.39-7.25-1.16-2.25-.77-4.21-1.79-5.87-3.04-1.66-1.25-2.93-2.62-3.82-4.1v7.42h-12.07V57.83h12.07v30.55c1.7-2.44,4.08-4.41,7.14-5.92,3.06-1.51,6.37-2.27,9.91-2.27,5.61,0,10.39,1.27,14.34,3.82,3.95,2.55,6.99,6.03,9.13,10.46,2.14,4.43,3.21,9.52,3.21,15.28,0,4.28-.59,8.25-1.77,11.9-1.18,3.65-2.93,6.79-5.26,9.41-2.33,2.62-5.15,4.67-8.47,6.14-3.32,1.48-7.08,2.21-11.29,2.21ZM647.29,128.9c2.44,0,4.65-.46,6.64-1.38,1.99-.92,3.69-2.23,5.09-3.93,1.4-1.7,2.49-3.73,3.27-6.09.77-2.36,1.16-4.94,1.16-7.75,0-5.76-1.48-10.37-4.43-13.84-2.95-3.47-6.86-5.2-11.74-5.2-2.36,0-4.52.46-6.48,1.38-1.96.92-3.65,2.21-5.09,3.87s-2.57,3.65-3.38,5.98c-.81,2.32-1.22,4.93-1.22,7.8,0,5.76,1.5,10.39,4.48,13.89,2.99,3.51,6.88,5.26,11.68,5.26Z"/>
    <path class="st0" d="M705.85,139.42c-5.09,0-9.48-.89-13.17-2.66-3.69-1.77-6.61-4.17-8.75-7.2-2.14-3.02-3.32-6.49-3.54-10.41h11.96c.15,2.51,1.37,4.78,3.65,6.81,2.29,2.03,5.57,3.04,9.85,3.04,3.39,0,6.12-.66,8.19-1.99,2.07-1.33,3.1-3.1,3.1-5.31,0-1.7-.65-3.06-1.94-4.1-1.29-1.03-3.12-1.77-5.48-2.21l-10.41-2.32c-2.95-.66-5.68-1.61-8.19-2.82-2.51-1.22-4.5-2.91-5.98-5.09-1.48-2.18-2.21-5.04-2.21-8.58,0-3.03.89-5.77,2.66-8.25,1.77-2.47,4.28-4.45,7.53-5.92,3.25-1.48,7.08-2.21,11.51-2.21s8.12.74,11.51,2.21c3.39,1.48,6.14,3.53,8.25,6.14,2.1,2.62,3.38,5.74,3.82,9.35h-11.85c-.44-2.44-1.72-4.35-3.82-5.76-2.1-1.4-4.74-2.1-7.92-2.1-2.95,0-5.3.59-7.03,1.77-1.74,1.18-2.6,2.77-2.6,4.76,0,1.55.63,2.81,1.88,3.76,1.25.96,2.99,1.66,5.2,2.1l11.07,2.32c3.1.66,5.88,1.59,8.36,2.77,2.47,1.18,4.41,2.9,5.81,5.15,1.4,2.25,2.1,5.22,2.1,8.91,0,3.4-.98,6.42-2.93,9.08-1.96,2.66-4.7,4.78-8.25,6.37-3.54,1.59-7.68,2.38-12.4,2.38Z"/>
  </g>
  <rect class="st1" x="66.19" y="57.83" width="81.59" height="81.59"/>
  <rect class="st2" x="118" y="88.73" width="11.28" height="10.84"/>
  <polygon class="st2" points="118 107.88 129.28 107.88 129.28 118.8 122.89 131.6 118.71 131.6 123.24 118.8 118 118.8 118 107.88"/>
</svg>
